<svg width="40" height="40" viewBox="0 0 40 40" fill="none" xmlns="http://www.w3.org/2000/svg">
<path d="M5.83341 10.6667C7.00008 9.16667 8.66675 8.33333 10.5001 8.33333H29.6667L30.0001 6.33333C30.1667 5.66667 30.8334 5 31.6667 5H35.0001C36.0001 5 36.6667 5.66667 36.6667 6.66667C36.6667 7.66667 36.0001 8.33333 35.0001 8.33333H33.0001L32.6667 10.3333L30.6667 22L30.3334 24C30.0001 26.5 27.8334 28.3333 25.3334 28.3333H9.33341C8.33341 28.3333 7.66675 27.6667 7.66675 26.6667C7.66675 25.6667 8.33341 25 9.33341 25H25.3334C26.1667 25 27.0001 24.3333 27.1667 23.5V23.3333H11.5001C8.83341 23.3333 6.66675 21.6667 5.83341 19.1667L4.83341 15.8333C4.33341 14 4.83341 12.1667 5.83341 10.6667ZM8.16675 14.8333L9.16675 18.1667C9.50008 19.1667 10.5001 20 11.5001 20H27.8334L29.1667 11.6667H10.5001C9.66675 11.6667 9.00008 12 8.50008 12.6667C8.00008 13.3333 7.83341 14.1667 8.16675 14.8333Z" fill="#333333"/>
<path d="M25.8335 35C24.4528 35 23.3335 33.8807 23.3335 32.5C23.3335 31.1193 24.4528 30 25.8335 30C27.2142 30 28.3335 31.1193 28.3335 32.5C28.3335 33.8807 27.2142 35 25.8335 35Z" fill="#333333"/>
<path d="M12.5 35C11.1193 35 10 33.8807 10 32.5C10 31.1193 11.1193 30 12.5 30C13.8807 30 15 31.1193 15 32.5C15 33.8807 13.8807 35 12.5 35Z" fill="#333333"/>
</svg>
