<svg width="231" height="40" viewBox="0 0 231 40" fill="none" xmlns="http://www.w3.org/2000/svg">
<g filter="url(#filter0_i_139_22)">
<rect x="6.61853" y="8.66339" width="17.1304" height="5.4146" fill="#005ACD"/>
<rect width="5.83304" height="21.6842" transform="matrix(0.907375 0.420323 -0.424921 0.905231 16.1442 8.66339)" fill="#005ACD"/>
<rect width="5.83304" height="21.6842" transform="matrix(-0.907375 0.420323 0.424921 0.905231 23.7585 8.66339)" fill="#005ACD"/>
<path d="M31.0294 24.0563L34.3673 30.7279H27.6914L31.0294 24.0563Z" fill="#005ACD"/>
<path d="M8.91562 24.0563L12.2536 30.7279H5.57766L8.91562 24.0563Z" fill="#005ACD"/>
<rect x="12.77" y="21.9678" width="14.4051" height="3.86757" fill="#005ACD"/>
</g>
<path d="M36.1932 12.4753V9.16204H53.6009V12.4753H46.8572V30.9802H42.9368V12.4753H36.1932ZM56.9567 30.9802V9.16204H60.9091V27.667H70.5185V30.9802H56.9567ZM77.571 30.9802H73.3523L81.0334 9.16204H85.9126L93.6044 30.9802H89.3857L83.5582 13.6365H83.3878L77.571 30.9802ZM77.7095 22.4255H89.2152V25.6003H77.7095V22.4255ZM114.408 9.16204V30.9802H110.892L100.612 16.1187H100.431V30.9802H96.4782V9.16204H100.015L110.285 24.0342H110.477V9.16204H114.408ZM117.756 12.4753V9.16204H135.163V12.4753H128.42V30.9802H124.499V12.4753H117.756ZM138.519 30.9802V9.16204H152.71V12.4753H142.472V18.3985H151.974V21.7118H142.472V27.667H152.795V30.9802H138.519ZM159.544 30.9802H155.325L163.006 9.16204H167.885L175.577 30.9802H171.358L165.531 13.6365H165.36L159.544 30.9802ZM159.682 22.4255H171.188V25.6003H159.682V22.4255ZM196.381 9.16204V30.9802H192.865L182.584 16.1187H182.403V30.9802H178.451V9.16204H181.988L192.258 24.0342H192.449V9.16204H196.381ZM212.544 15.1599C212.445 14.2295 212.026 13.5051 211.287 12.9866C210.556 12.4682 209.604 12.2089 208.432 12.2089C207.608 12.2089 206.902 12.3332 206.312 12.5818C205.723 12.8304 205.272 13.1677 204.959 13.5939C204.647 14.02 204.487 14.5065 204.48 15.0534C204.48 15.5079 204.583 15.9021 204.789 16.2359C205.002 16.5697 205.289 16.8538 205.652 17.0882C206.014 17.3155 206.415 17.5072 206.855 17.6635C207.296 17.8197 207.74 17.9511 208.187 18.0576L210.233 18.569C211.056 18.7608 211.848 19.02 212.608 19.3467C213.375 19.6734 214.061 20.0853 214.664 20.5825C215.275 21.0797 215.758 21.6798 216.113 22.3829C216.468 23.086 216.646 23.9099 216.646 24.8545C216.646 26.1329 216.319 27.2586 215.666 28.2316C215.012 29.1976 214.068 29.9539 212.832 30.5008C211.603 31.0406 210.115 31.3105 208.368 31.3105C206.671 31.3105 205.197 31.0477 203.947 30.5221C202.704 29.9966 201.731 29.2295 201.028 28.221C200.332 27.2125 199.956 25.9838 199.899 24.5349H203.787C203.844 25.2949 204.078 25.927 204.49 26.4312C204.902 26.9355 205.439 27.3119 206.099 27.5605C206.767 27.8091 207.512 27.9333 208.336 27.9333C209.196 27.9333 209.949 27.8055 210.595 27.5498C211.248 27.287 211.76 26.9248 212.129 26.4632C212.498 25.9944 212.686 25.4476 212.694 24.8226C212.686 24.2544 212.52 23.7856 212.193 23.4163C211.866 23.0399 211.408 22.7274 210.819 22.4788C210.236 22.2231 209.554 21.9958 208.773 21.797L206.291 21.1578C204.494 20.6961 203.074 19.9966 202.029 19.0591C200.993 18.1145 200.474 16.8609 200.474 15.2984C200.474 14.0129 200.822 12.8872 201.518 11.9213C202.221 10.9554 203.176 10.2061 204.384 9.67341C205.591 9.13363 206.958 8.86375 208.485 8.86375C210.034 8.86375 211.39 9.13363 212.555 9.67341C213.727 10.2061 214.647 10.9483 215.314 11.9C215.982 12.8446 216.326 13.9312 216.348 15.1599H212.544Z" fill="#333333"/>
<defs>
<filter id="filter0_i_139_22" x="5.57764" y="8.66339" width="28.7897" height="26.0809" filterUnits="userSpaceOnUse" color-interpolation-filters="sRGB">
<feFlood flood-opacity="0" result="BackgroundImageFix"/>
<feBlend mode="normal" in="SourceGraphic" in2="BackgroundImageFix" result="shape"/>
<feColorMatrix in="SourceAlpha" type="matrix" values="0 0 0 0 0 0 0 0 0 0 0 0 0 0 0 0 0 0 127 0" result="hardAlpha"/>
<feOffset dy="10"/>
<feGaussianBlur stdDeviation="2"/>
<feComposite in2="hardAlpha" operator="arithmetic" k2="-1" k3="1"/>
<feColorMatrix type="matrix" values="0 0 0 0 0 0 0 0 0 0 0 0 0 0 0 0 0 0 0.25 0"/>
<feBlend mode="normal" in2="shape" result="effect1_innerShadow_139_22"/>
</filter>
</defs>
</svg>
