<svg width="40" height="40" viewBox="0 0 40 40" fill="none" xmlns="http://www.w3.org/2000/svg">
<path d="M25.375 22.8125C23.6934 22.8125 22.8848 23.75 20.125 23.75C17.3652 23.75 16.5625 22.8125 14.875 22.8125C10.5273 22.8125 7 26.3398 7 30.6875V32.1875C7 33.7402 8.25977 35 9.8125 35H30.4375C31.9902 35 33.25 33.7402 33.25 32.1875V30.6875C33.25 26.3398 29.7227 22.8125 25.375 22.8125ZM30.4375 32.1875H9.8125V30.6875C9.8125 27.8984 12.0859 25.625 14.875 25.625C15.7305 25.625 17.1191 26.5625 20.125 26.5625C23.1543 26.5625 24.5137 25.625 25.375 25.625C28.1641 25.625 30.4375 27.8984 30.4375 30.6875V32.1875ZM20.125 21.875C24.7832 21.875 28.5625 18.0957 28.5625 13.4375C28.5625 8.7793 24.7832 5 20.125 5C15.4668 5 11.6875 8.7793 11.6875 13.4375C11.6875 18.0957 15.4668 21.875 20.125 21.875ZM20.125 7.8125C23.2246 7.8125 25.75 10.3379 25.75 13.4375C25.75 16.5371 23.2246 19.0625 20.125 19.0625C17.0254 19.0625 14.5 16.5371 14.5 13.4375C14.5 10.3379 17.0254 7.8125 20.125 7.8125Z" fill="#333333"/>
</svg>
